<svg data-bbox="78.557 -317.49 748.043 1374.38" viewBox="0 0 970 1000" xmlns="http://www.w3.org/2000/svg" data-type="ugc"><path d="M222.41 43.2c-13.09 12.72-22.57 21.27-22.84 20.62-.37-.56-1.39-7.15-2.32-14.77-1.39-11.05-1.95-13.65-3.16-13.65-.93 0-7.89 11.79-20.43 34.92-10.49 19.13-19.13 34.27-19.22 33.62-.19-.65-1.49-9.56-3.06-19.78-3.53-23.12-3.62-23.68-5.01-23.68-.65 0-4.09 7.43-7.8 16.44-7.99 20.15-31.48 77.63-33.15 81.53-.65 1.49-2.51 6.31-4.18 10.68s-3.34 8.26-3.71 8.82c-1.39 1.86-7.34 18.76-9.19 26-3.53 14.02-8.54 39.93-9.38 48.2-3.62 37.33 17.55 97.6 47.17 134.37 24.33 30.18 61.1 51.82 102.8 60.55 14.86 3.16 25.35 4.27 42.72 4.83 7.89.28 15.51.74 16.9 1.02 8.91 2.14 20.8 11.98 25.26 20.89 5.76 11.51 4.83 24.05-3.25 42.81-29.72 69.65-51.26 160.74-59.25 250.54-4.92 55.25-5.57 130.1-1.39 172.26 4.74 48.29 12.07 108.56 13.93 114.41l1.02 3.06h554.94l2.04-4.74c3.06-7.24 3.81-16.53 4.36-56.83.65-46.34-1.21-101.31-6.22-184.98-1.02-16.9-3.06-51.35-4.55-76.61-1.58-25.26-3.34-54.51-3.9-65-.65-10.49-1.21-32.04-1.21-47.82l-.09-28.79 3.44-10.21c13.28-39.37 16.34-86.92 9.1-140.04-5.01-36.12-16.34-77.91-32.04-117.19-10.31-26.09-13.37-31.94-18.94-36.87-4.18-3.62-5.76-4.36-10.21-4.92-6.04-.74-9.47-2.51-11.51-5.94-.74-1.3-2.69-7.43-4.36-13.56-3.99-15.14-6.5-20.15-11.89-23.87-3.99-2.79-5.01-3.06-11.51-3.06h-7.15l-4.36-4.46c-4.92-4.83-10.68-7.15-17.92-7.15-8.36 0-10.31 2.41-14.58 17.64-1.3 4.83-2.97 9.38-3.62 10.03-.56.65-2.88 1.39-5.11 1.58-6.69.65-7.52 2.41-9.19 19.97-2.23 21.92-3.16 44.57-3.71 87.66-.65 54.42.37 50.89-12.26 42.53-8.82-5.85-11.33-7.34-20.34-11.79-14.39-7.15-20.99-9.1-31.11-9.19-8.73 0-11.7 1.21-16.62 6.96-3.71 4.36-4.92 8.82-3.71 13.74.74 3.06 1.58 3.71 9.84 7.99 10.86 5.57 16.34 9.66 24.14 17.92 10.21 10.86 20.71 28.51 32.22 54.23 2.23 5.01 6.69 12.91 10.03 17.64 10.68 15.42 26.84 40.02 31.11 47.64 9.29 16.25 14.67 30.83 14.67 39.47 0 6.13 1.3 16.16 6.96 52 10.86 69.18 12.91 87.38 12.91 117.94.09 18.02-.19 23.12-1.58 29.07-1.67 7.06-3.44 9.38-5.39 7.43-.46-.46-5.39-14.39-10.96-31.02-34.39-102.53-76.36-197.53-109.05-246.47-3.06-4.64-9.38-13.19-14.12-19.04-18.48-23.03-25.72-37.24-32.87-64.08-5.76-21.54-6.96-38.54-4.27-60.36 5.66-45.78 23.77-78.75 58.04-105.21 13.19-10.21 15.04-12.07 17.55-17.37 2.04-4.36 2.41-6.41 2.41-13.93 0-7.61-.37-9.47-2.41-13.93-3.44-7.15-6.59-10.49-15.6-16.53-10.59-7.15-11.51-8.54-12.16-18.57-.74-11.79-3.99-16.62-13.19-19.78-8.26-2.79-10.49-5.2-12.35-13.47-1.39-6.31-2.04-7.61-5.94-11.42-4.36-4.36-9.47-6.59-18.57-7.99-12.54-2.04-18.85-9.56-17.27-20.8 1.86-12.91.65-16.99-5.85-20.8-6.04-3.53-46.9-3.62-63.24-.09-9.56 2.04-21.92 2.04-26.09.09-6.59-3.16-12.07-6.78-18.29-12.07-13.19-11.24-32.32-22.19-47.17-27.12-19.5-6.41-40.58-9.1-57.67-7.24-5.11.56-9.38.84-9.47.74-.19-.19.37-1.11 1.21-2.04 2.6-2.79 14.49-19.13 15.88-21.92 1.21-2.23 1.21-2.6-.19-3.16-1.76-.65-8.64 1.67-16.34 5.48-2.88 1.39-5.85 2.6-6.5 2.6-.74 0-2.14.56-3.16 1.3s-5.39 2.79-9.66 4.55c-4.36 1.86-10.59 4.36-13.74 5.76-3.25 1.39-6.04 2.32-6.22 2.14-.19-.19-.65-5.2-1.02-11.24-.65-10.21-.74-10.86-2.6-10.86-1.33.01-9.78 7.63-24.26 21.74z"/><text transform="translate(192.38 -306.787)" font-family="MyriadPro-Regular" font-size="12">Lorem ipsum</text></svg>
