<?xml version="1.0" encoding="utf-8"?>
<!-- Generator: Adobe Illustrator 24.3.0, SVG Export Plug-In . SVG Version: 6.00 Build 0)  -->
<svg version="1.1" id="Layer_1" xmlns="http://www.w3.org/2000/svg" xmlns:xlink="http://www.w3.org/1999/xlink" x="0px" y="0px"
	 viewBox="0 0 841.9 595.3" style="enable-background:new 0 0 841.9 595.3;" xml:space="preserve">
<path d="M357,469.3c6.3,0,12.3,0,18.7,0c0,1.8,0,3,0,4.7c-25.8,0-51.5,0-77.6,0c-0.1-1.4-0.1-2.7-0.2-4.5c6.5,0,12.6,0,19.9,0
	c0-5.8,0-11.2,0-16.6c0-24.4,0.4-48.9-0.1-73.3c-0.5-22.1-6.1-42.7-22.1-59.2c-7.9-8.1-17.5-12.4-29.1-12c-5.4,0.2-10.9,0-16.6,0
	c0,53.9,0,107.1,0,160.8c6.3,0,12.4,0,18.8,0c0,1.8,0,3.2,0,4.8c-1.1,0.1-2,0.3-3,0.3c-23.5,0-46.9,0-70.4,0c-3.1,0-5.5-0.2-4-4.9
	c6,0,12.2,0,19.1,0c0-111,0-221.5,0-332.6c-4.9,0-10,0.2-15.1-0.1c-1.3-0.1-2.6-1.6-3.8-2.4c1.2-0.8,2.3-2.3,3.5-2.3
	c29,0,58-0.7,86.8,0.6c35.5,1.7,65.5,25.7,73.4,58.2c4.8,19.7,5.1,40.1-0.6,59.7c-7.9,27.5-27.5,44.3-54.2,53.3
	c-1.4,0.5-2.9,0.9-4.3,1.3c-0.2,0-0.3,0.2-1.3,0.8c2.3,0.8,4.1,1.3,5.8,1.9c30.6,10.6,50.4,30.7,55.8,63.4c0.6,3.4,0.7,6.9,0.7,10.4
	c0,28.1-0.2,56.2-0.2,84.3C356.7,466.9,356.8,467.9,357,469.3z M249.9,137.6c0,55,0,110.1,0,165.5c4.8,0,9.4-0.3,14,0.1
	c16.7,1.3,28.9-6.6,37.9-19.6c4.5-6.5,8-13.8,10.8-21.1c7-18.3,5.8-37.5,5.3-56.6c-0.5-16.6-4.3-32.4-13.5-46.3
	C289,136,274.7,135.3,249.9,137.6z"/>
<path d="M83.6,301c9.9,0,19.4,0.2,28.9-0.1c6.2-0.2,9.7-4.6,12.6-9.4c5.1-8.9,6.5-18.7,7.1-29.1c1.4-0.1,2.8-0.3,4.6-0.5
	c0,27.7,0,55,0,82.8c-1.2,0.1-2.6,0.3-4.2,0.4c-0.2-1-0.5-1.8-0.5-2.6c-0.5-9.2-2.1-18.1-6.5-26.4c-3.7-6.8-8.8-10.8-17.2-10.3
	c-8.1,0.5-16.2,0.1-24.6,0.1c0,54.6,0,108.7,0,163.4c5.3,0,10.4,0.2,15.5-0.1c3.5-0.2,4.5,1.2,3.5,4.8c-25.7,0-51.6,0-77.9,0
	c-0.1-1.3-0.1-2.7-0.3-4.7c6.6,0,12.8,0,19.3,0c0-110.8,0-220.9,0-331.7c-6.2,0-12.5,0-19,0c0-2,0-3.4,0-5c47,0,93.8,0,141.1,0
	c0,22.5,0,45,0,67.8c-3.2,1.4-4.6,0.5-4.7-3.3c-0.3-13.4-2.4-26.5-8.2-38.7c-2.4-5-5.8-9.7-9.3-14c-4.1-5-9.8-7.1-16.4-7
	c-12.8,0.1-25.6,0-38.5,0.1c-1.6,0-3.2,0.1-5.2,0.2C83.6,192.2,83.6,246.3,83.6,301z"/>
<path d="M736.6,312c17.3-57.6,34.6-115.2,52-173.5c-6.4,0-12.3,0-18.5,0c0-1.9,0-3.3,0-4.9c15.8,0,31.4,0,47.2,0
	c0.1,1.5,0.1,2.8,0.2,4.3c-3.1,0.5-6.1,0.8-8.9,1.4c-10.4,2.3-17.5,8-20.6,18.6c-16.1,53.9-32.3,107.7-48.5,161.6
	c-0.6,2-1,4.2-1,6.3c-0.1,46.9,0,93.7,0,140.6c0,1.1,0.1,2.3,0.2,3.9c6.5,0,12.7,0,19.3,0c0.1,1.8,0.2,3.2,0.2,4.9
	c-26.2,0-52.1,0-78.3,0c0-1.5,0-2.8,0-4.7c6.4,0,12.7,0,19.2,0c0.1-1.9,0.2-3.3,0.2-4.8c0-46.5,0-93.1,0-139.6
	c0-2.1-0.2-4.3-0.8-6.4c-16.8-59.4-33.7-118.7-50.6-178.1c-0.3-1-0.6-1.9-1-3.2c-6.2,0-12.5,0-19.1,0c-0.1-1.8-0.2-3.1-0.3-4.8
	c26.1,0,51.8,0,77.9,0c0.1,1.4,0.2,2.7,0.4,4.5c-6.5,0-12.6,0-19.5,0c16.5,58.3,32.9,115.9,49.2,173.6
	C735.9,311.9,736.2,311.9,736.6,312z"/>
<g>
	<path d="M595.1,382.3c0.4-3.5,1.4-7.1,1.1-10.6c-1.5-15.4-3.4-30.7-5.2-46c-0.4-3.6-0.8-7.3-1.6-10.8c-1.2-4.9-2-10.2-4.4-14.6
		c-6.6-12.2-13.6-24.3-21.1-36c-3-4.6-7.7-8-11.8-11.8c-1.8-1.6-5.6-1.8-4.1-5.6c1.4-3.5,4.4-5.5,7.9-4.4c4.7,1.4,9.2,3.6,13.7,5.7
		c1.9,0.9,3.6,2.2,6.2,3.8c0.3-2.1,0.5-3.3,0.5-4.5c0.4-13.9,0.7-27.9,1.2-41.8c0.1-3-0.1-6.3,4.1-7.5c1-0.3,1.7-2.6,2.2-4.1
		c1.8-5.6,5.2-6.7,10.1-3.4c1.5,1,3.4,1.5,5.2,1.9c4.1,0.8,5.8,3.5,6.6,7.2c1.1,4.6,2,9,8.1,9.8c1.6,0.2,3.3,2.7,4.1,4.6
		c10.8,24.3,17.7,49.4,15.4,76.3c-0.3,3.6-0.4,7.4-1.6,10.8c-5,13.9-3.4,28.1-2.8,42.4c1.7,36,3.3,72,4.8,108
		c0.2,4.6-0.2,9.3-0.6,13.9c-0.6,6.4-4.8,10.4-11.1,10.6c-10,0.2-20,0.1-30,0l-3.3,0l0-0.8l-0.2-4c-5.2,0-18.2,0.2-18.2,0.2
		c-13.3-68.8-28.3-144.2-41.8-213c-7.1-36.3-14.2-72.7-21.4-108.9c-0.8-4,0.2-5.8,4.1-5.8c4.3,0,8.6,0,12.9,0.3
		c3.7,0.3,5,2.5,4.7,6.2c-0.6,6.2,0.4,7.5,6.6,8.8c3.9,0.8,6.6,2.6,7.6,6.8c0.4,1.6,2.6,2.6,3.7,4.1c1.7,2.2,3.3,4.5,4.8,6.8
		c1.3,1.9,1.8,4.6,3.6,5.9c8.8,6.3,9.2,14.1,0.7,20.5c-22.4,16.8-28.9,50.3-11.9,73c19.6,26.3,31.1,56.2,42.5,86.3
		c2.5,6.6,4.6,13.4,6.9,20.1C594,382.3,594.5,382.3,595.1,382.3z"/>
	<path d="M436.9,427c0.7-19.3,0.7-38.7,2.3-58c2.5-28.9,9.3-56.9,20.6-83.8c4.5-10.7-1.8-19.6-13.2-19.7
		c-41.4-0.2-62.8-29-66.4-62.7c-0.7-6.5,0.9-13.7,3.1-20c5.8-16.5,12.5-32.8,20-49c0.8,4.4,1.6,8.7,2.6,14.1
		c4.6-8.3,8.7-15.8,13.4-24.2c0.7,4.1,1.2,7.1,1.8,10.1c0.4,0.4,0.9,0.7,1.3,1.1c4.5-5.5,8.9-10.9,13.4-16.4
		c0.6,0.4,1.2,0.9,1.8,1.3c0.2,2.4,0.4,4.7,0.6,7.7c6.4-2.7,12.6-5.4,20.3-8.6c-2.7,3.8-4.5,6.5-6.6,9.4c5.1,0.4,9.8,0.4,14.5,1.1
		c9,1.2,16.8,5.3,23.6,11.1c1.4,1.2,2.3,4,1.9,5.8c-17.3,92.5-34.8,184.9-52.3,277.4c-0.2,1.2-0.7,2.4-1.1,3.6
		C438,427.1,437.4,427,436.9,427z"/>
	<path d="M452.9,374.8c20.5,0,40.4,0,60.4,0.1c1.1,0,3,1.5,3.2,2.5c6.1,30.9,12,61.8,18.1,93.4c-5.9,0-11.5,0-17.3,0
		c-0.4,1.9-0.6,3.7-0.9,5c-0.8,0.1-1.2,0-1.6,0.1c-20.6,0-41.2,0.1-61.8,0c-6.1,0-9.1-2.7-10.3-8.6c-2.5-12.1-3.2-24-0.4-36.4
		C446.4,412.5,449.3,393.8,452.9,374.8z"/>
	<path d="M515.1,369.7c-20.7,0-40.8,0-61.3,0c9.9-51.6,19.7-103,29.5-154.3c0.4,0,0.7,0,1.1,0.1C494.6,266.7,504.8,318,515.1,369.7z
		"/>
</g>
</svg>
